<svg width="671" height="296" viewBox="0 0 671 296" fill="none" xmlns="http://www.w3.org/2000/svg">
<path fill-rule="evenodd" clip-rule="evenodd" d="M233.996 0.483536C206.601 3.86854 187.751 24.9125 191.852 47.5315C194.324 61.1605 202.133 71.0855 215.318 77.3575C225.243 82.0785 232.155 83.7245 241.823 83.6685C261.85 83.5535 280.489 72.9325 287.553 57.6115C301.714 26.8955 272.494 -4.27346 233.996 0.483536ZM390.823 9.86253C370.574 13.3385 353.415 25.2845 345.567 41.3695C340.153 52.4645 338.795 59.4465 338.125 79.6195L337.536 97.3695H318.68H299.823V134.87V172.37H319.323H338.823V231.87V291.37H383.323H427.823V231.87V172.37H454.278H480.732L481.22 169.12C481.66 166.196 481.622 155.882 481.011 111.12L480.823 97.3695H453.848H426.873L427.47 94.1195C428.314 89.5245 430.149 86.9515 434.522 84.2325C438.062 82.0315 439.319 81.8695 452.823 81.8695C460.798 81.8695 471.486 82.2405 476.573 82.6945L485.823 83.5195L485.808 48.6945C485.799 28.6595 485.392 13.2365 484.85 12.3795C482.663 8.91953 407.965 6.91953 390.823 9.86253ZM525.823 62.8695V97.3695H508.823H491.823V134.87V172.37H508.735H525.646L526.096 207.12C526.595 245.667 527.178 250.267 533.16 262.865C538.334 273.76 546.148 281.531 557.231 286.807C570.087 292.926 579.733 294.744 598.823 294.648C616.675 294.558 659.329 289.778 669.073 286.775C670.694 286.275 670.823 283.765 670.823 252.693V219.153L668.565 219.719C658.688 222.198 646.072 223.526 635.325 223.216C624.365 222.9 622.917 222.63 618.647 220.12C615.02 217.988 613.338 216.082 611.147 211.62C608.395 206.015 608.323 205.451 608.323 189.37V172.87L639.073 172.606L669.823 172.341V134.856V97.3695H638.823H607.823V62.8695V28.3695H566.823H525.823V62.8695ZM82.8226 89.0715C57.4646 90.6035 34.9756 97.8265 22.1676 108.553C6.3326 121.813 -1.0014 139.037 0.109604 160.355C1.0076 177.582 5.3736 188.214 15.7216 198.37C28.0556 210.476 44.3096 216.152 78.8226 220.409C90.8176 221.888 95.0856 223.531 94.6446 226.499C94.0926 230.217 89.9406 232.302 80.7176 233.49C65.5736 235.442 36.0726 230.35 13.6646 221.916L4.86861 218.606L4.39861 221.738C4.13961 223.461 3.69259 238.606 3.40559 255.396L2.8826 285.923L13.1026 288.169C59.0996 298.276 114.217 298.083 141.811 287.718C162.084 280.102 178.055 263.431 183.337 244.37C185.636 236.074 185.646 221.235 183.359 212.466C175.988 184.205 154.976 170.443 109.161 163.867C90.4976 161.188 85.8226 159.495 85.8226 155.411C85.8226 147.169 100.326 145.706 129.823 150.972C138.095 152.449 159.682 157.587 162.95 158.857C164.287 159.377 164.691 158.542 165.216 154.18C165.829 149.079 168.448 114.19 168.991 103.899L169.253 98.9275L161.788 97.1695C146.284 93.5185 124.754 90.3555 108.823 89.3885C99.7476 88.8385 91.4226 88.4665 90.3226 88.5635C89.2226 88.6605 85.8476 88.8885 82.8226 89.0715ZM195.588 191.12C195.442 242.683 195.485 286.332 195.682 288.12L196.042 291.37H241.932H287.823V194.37V97.3695H241.838H195.853L195.588 191.12Z" fill="white"/>
</svg>
